<svg width="256" height="256" viewBox="0 0 256 256" fill="none" xmlns="http://www.w3.org/2000/svg">
<rect width="256" height="256" rx="56" fill="white"/>
<path d="M193.152 88C196.979 85.7909 201.872 87.1019 204.081 90.9282L228.081 132.497C230.29 136.324 228.979 141.216 225.152 143.426L98.7128 216.426L66.7128 161L193.152 88Z" fill="#19B6F5"/>
<path d="M98.7128 216.426C83.4074 225.262 63.8365 220.018 55 204.713C46.1634 189.407 51.4074 169.837 66.7128 161C82.0181 152.163 101.589 157.407 110.426 172.713C119.262 188.018 114.018 207.589 98.7128 216.426Z" fill="#19B6F5"/>
<path d="M128.081 45.9282C130.29 42.1019 135.183 40.7909 139.009 43L180.578 67C184.405 69.2091 185.716 74.1019 183.506 77.9282L110.506 204.368L55.0808 172.368L128.081 45.9282Z" fill="#9C57F6"/>
<path d="M110.506 204.368C101.67 219.673 82.099 224.917 66.7936 216.081C51.4882 207.244 46.2442 187.673 55.0808 172.368C63.9173 157.063 83.4882 151.819 98.7936 160.655C114.099 169.492 119.343 189.063 110.506 204.368Z" fill="#9C57F6"/>
<path d="M50.0808 43C50.0808 38.5817 53.6625 35 58.0808 35H106.081C110.499 35 114.081 38.5817 114.081 43V189H50.0808V43Z" fill="#F86D60"/>
<path d="M114.081 189C114.081 206.673 99.7539 221 82.0808 221C64.4077 221 50.0808 206.673 50.0808 189C50.0808 171.327 64.4077 157 82.0808 157C99.7539 157 114.081 171.327 114.081 189Z" fill="#F86D60"/>
<circle cx="82.0808" cy="187" r="8" fill="white"/>
</svg>
