<svg t="1653017673760" class="icon" viewBox="0 0 1024 1024" version="1.1" xmlns="http://www.w3.org/2000/svg" p-id="1290" width="200" height="200"><path d="M0 0m256 0l512 0q256 0 256 256l0 512q0 256-256 256l-512 0q-256 0-256-256l0-512q0-256 256-256Z" fill="#9B64ED" p-id="1291"></path><path d="M709.3248 385.5872l82.7136 143.2576a23.6288 23.6288 0 0 1-8.6528 32.2816l-337.664 194.944a106.3424 106.3424 0 1 1-106.3424-184.1664l337.664-194.9696a23.6288 23.6288 0 0 1 32.2816 8.6528z" fill="#B285F6" p-id="1292"></path><path d="M492.6464 234.1632l184.192 106.3424c11.3152 6.528 15.1808 20.992 8.6528 32.2816l-183.1424 317.2096a129.9712 129.9712 0 1 1-225.1008-129.9712l183.1168-317.184a23.6288 23.6288 0 0 1 32.2816-8.6784z" fill="#C7AAF1" p-id="1293"></path><path d="M275.712 228.4288h212.6592c13.056 0 23.6288 10.5728 23.6288 23.6288v389.888a129.9712 129.9712 0 1 1-259.9424 0V252.0832c0-13.056 10.5728-23.6288 23.6288-23.6288z" fill="#FFFFFF" p-id="1294"></path><path d="M378.4448 646.4768m-25.6 0a25.6 25.6 0 1 0 51.2 0 25.6 25.6 0 1 0-51.2 0Z" fill="#9B64ED" p-id="1295"></path></svg>
