<?xml version="1.0" standalone="no"?><!DOCTYPE svg PUBLIC "-//W3C//DTD SVG 1.1//EN" "http://www.w3.org/Graphics/SVG/1.1/DTD/svg11.dtd"><svg t="1631585821762" class="icon" viewBox="0 0 1024 1024" version="1.1" xmlns="http://www.w3.org/2000/svg" p-id="2004" xmlns:xlink="http://www.w3.org/1999/xlink" width="200" height="200"><defs><style type="text/css"></style></defs><path d="M219.6 353.9L382.5 261 512 353.9z" fill="#A180FF" p-id="2005"></path><path d="M382.5 353.9V261L512 353.9z" fill="#CB9AFF" p-id="2006"></path><path d="M512 170.2v183.7L382.5 261z" fill="#EABFFF" p-id="2007"></path><path d="M338 170.2l44.5 90.8-162.9 92.9V250.2z" fill="#B68DFF" p-id="2008"></path><path d="M512 170.2H338l44.5 90.8zM219.6 353.9L72 350l147.6-99.8zM804.4 353.9L641.5 261 512 353.9z" fill="#CB9AFF" p-id="2009"></path><path d="M686 170.2L641.5 261l162.9 92.9V250.2z" fill="#A180FF" p-id="2010"></path><path d="M512 170.2h174L641.5 261zM804.4 353.9L952 350l-147.6-99.8zM641.5 353.9V261L512 353.9z" fill="#B68DFF" p-id="2011"></path><path d="M641.5 261L512 353.9V170.2z" fill="#CB9AFF" p-id="2012"></path><path d="M512 353.9l-64.8 238.3-64.7-238.3z" fill="#B68DFF" p-id="2013"></path><path d="M219.6 353.9l227.6 238.3-64.7-238.3z" fill="#CB9AFF" p-id="2014"></path><path d="M284.5 587.3l-64.9-233.4L72 350z" fill="#A180FF" p-id="2015"></path><path d="M512 353.9v499.9l-64.8-261.6z" fill="#EABFFF" p-id="2016"></path><path d="M284.5 587.3l-64.9-233.4 227.6 238.3L512 853.8z" fill="#B68DFF" p-id="2017"></path><path d="M512 353.9l64.8 238.3 64.7-238.3z" fill="#A180FF" p-id="2018"></path><path d="M804.4 353.9L576.8 592.2l64.7-238.3z" fill="#B68DFF" p-id="2019"></path><path d="M739.5 587.3l64.9-233.4L952 350z" fill="#8A73FF" p-id="2020"></path><path d="M739.5 587.3l64.9-233.4-227.6 238.3L512 853.8z" fill="#A180FF" p-id="2021"></path><path d="M576.8 592.2L512 853.8V353.9z" fill="#CB9AFF" p-id="2022"></path><path d="M696.4 274.8c-20.7-4.7-36.9-21-41.6-41.6-0.4-1.6-2.4-1.6-2.8 0-4.7 20.7-21 36.9-41.6 41.6-1.6 0.4-1.6 2.4 0 2.8 20.7 4.7 36.9 21 41.6 41.6 0.4 1.6 2.4 1.6 2.8 0 4.7-20.7 21-36.9 41.6-41.6 1.5-0.4 1.5-2.5 0-2.8zM608.1 358.4c-16.2-4.2-29-17-33.2-33.2-0.4-1.6-2.5-1.6-3 0-4.2 16.2-17 29-33.2 33.2-1.6 0.4-1.6 2.5 0 3 16.2 4.2 29 17 33.2 33.2 0.4 1.6 2.5 1.6 3 0 4.2-16.2 17-29 33.2-33.2 1.6-0.5 1.6-2.6 0-3z" fill="#FFFFFF" p-id="2023"></path></svg>